<svg width="24" height="24" viewBox="0 0 24 24" fill="none" xmlns="http://www.w3.org/2000/svg">
<g opacity="0.9">
<path d="M19.4119 7.5628C19.3425 7.49343 19.2722 7.42593 19.2019 7.35936L21.5306 5.03061C21.6003 4.96093 21.6556 4.87821 21.6933 4.78716C21.731 4.69612 21.7504 4.59854 21.7504 4.49999C21.7504 4.40144 21.731 4.30386 21.6933 4.21282C21.6556 4.12177 21.6003 4.03905 21.5306 3.96936C21.4609 3.89968 21.3782 3.84441 21.2872 3.80669C21.1961 3.76898 21.0986 3.74957 21 3.74957C20.9015 3.74957 20.8039 3.76898 20.7128 3.80669C20.6218 3.84441 20.5391 3.89968 20.4694 3.96936L18.0319 6.40686C16.2673 5.16471 14.1612 4.49952 12.0033 4.50271C9.8453 4.5059 7.74126 5.17731 5.98032 6.42468L3.53063 3.96936C3.3899 3.82863 3.19903 3.74957 3 3.74957C2.80098 3.74957 2.61011 3.82863 2.46938 3.96936C2.32865 4.1101 2.24959 4.30097 2.24959 4.49999C2.24959 4.69901 2.32865 4.88988 2.46938 5.03061L4.81875 7.37999C3.76922 8.37437 2.93357 9.57242 2.36294 10.9008C1.7923 12.2293 1.49867 13.6601 1.5 15.1059V17.25C1.5 17.6478 1.65804 18.0293 1.93934 18.3106C2.22065 18.592 2.60218 18.75 3 18.75H21C21.3978 18.75 21.7794 18.592 22.0607 18.3106C22.342 18.0293 22.5 17.6478 22.5 17.25V15C22.5039 13.6175 22.2328 12.2481 21.7027 10.9713C21.1725 9.69456 20.3938 8.53593 19.4119 7.5628ZM8.625 15C8.4025 15 8.18499 14.934 7.99999 14.8104C7.81498 14.6868 7.67079 14.5111 7.58564 14.3055C7.50049 14.0999 7.47821 13.8737 7.52162 13.6555C7.56503 13.4373 7.67217 13.2368 7.82951 13.0795C7.98684 12.9222 8.1873 12.815 8.40553 12.7716C8.62376 12.7282 8.84996 12.7505 9.05552 12.8356C9.26109 12.9208 9.43679 13.065 9.56041 13.25C9.68402 13.435 9.75 13.6525 9.75 13.875C9.75 14.1734 9.63148 14.4595 9.4205 14.6705C9.20952 14.8815 8.92337 15 8.625 15ZM15.375 15C15.1525 15 14.935 14.934 14.75 14.8104C14.565 14.6868 14.4208 14.5111 14.3356 14.3055C14.2505 14.0999 14.2282 13.8737 14.2716 13.6555C14.315 13.4373 14.4222 13.2368 14.5795 13.0795C14.7368 12.9222 14.9373 12.815 15.1555 12.7716C15.3738 12.7282 15.6 12.7505 15.8055 12.8356C16.0111 12.9208 16.1868 13.065 16.3104 13.25C16.434 13.435 16.5 13.6525 16.5 13.875C16.5 14.1734 16.3815 14.4595 16.1705 14.6705C15.9595 14.8815 15.6734 15 15.375 15Z" fill="black"/>
</g>
</svg>
